<svg xmlns="http://www.w3.org/2000/svg" viewBox="298 177 658 641">
<title>sluice</title>
<desc>Coral rounded square with a navy channel guiding a blue flow.</desc>
<defs>
  <linearGradient id="coral" x1="0" y1="0" x2="1" y2="1" gradientUnits="objectBoundingBox">
    <stop stop-color="#ff5c49"/><stop offset="1" stop-color="#ff6551"/>
  </linearGradient>
  <linearGradient id="water" x1="0" y1="0" x2="0.9" y2="1" gradientUnits="objectBoundingBox">
    <stop stop-color="#258aff"/><stop offset="1" stop-color="#1878f5"/>
  </linearGradient>
  <linearGradient id="channel" x1="0" y1="0" x2="1" y2="1" gradientUnits="objectBoundingBox">
    <stop stop-color="#0b285f"/><stop offset="1" stop-color="#102e70"/>
  </linearGradient>
  <clipPath id="rounded"><rect x="298" y="177" width="658" height="641" rx="111"/></clipPath>
</defs>
<g clip-path="url(#rounded)">
  <rect x="298" y="177" width="658" height="641" fill="url(#coral)"/>
  <path fill="url(#channel)" d="M541 177H715V418 C715 477 758 507 818 537 L956 604 V818 H298 V604 L436 537 C496 507 541 477 541 418 Z"/>
  <path fill="url(#water)" d="M581 177 H674 V498 C674 561 710 599 777 632 C848 667 924 695 956 751 V818 H298 V751 C330 695 406 667 477 632 C544 599 581 561 581 498 Z"/>
</g>
</svg>
